<svg xmlns="http://www.w3.org/2000/svg" width="24" height="24" viewBox="0 0 24 24">
    <g fill="#DB3030">
        <path d="M21.188 3.89h-5.672V2.814C15.516 1.262 14.254 0 12.703 0H9.422c-1.55 0-2.813 1.262-2.813 2.813V3.89H.938C.42 3.89 0 4.31 0 4.828c0 .518.42.938.938.938h.97l1.143 14.812.001.013c.085.933.513 1.796 1.206 2.428.693.633 1.59.981 2.528.981h8.553c1.953 0 3.558-1.455 3.734-3.384.047-.515-.333-.971-.848-1.018-.517-.047-.972.333-1.02.848-.086.957-.89 1.679-1.866 1.679H6.786c-.973 0-1.775-.73-1.866-1.699L3.789 5.766h14.547l-.8 10.38c-.04.517.346.968.862 1.007l.073.003c.485 0 .896-.373.934-.865l.812-10.525h.97c.518 0 .938-.42.938-.938s-.42-.937-.937-.937zm-7.547 0H8.484V2.814c0-.517.42-.938.938-.938h3.281c.517 0 .938.42.938.938V3.89z" transform="translate(.938)"/>
        <path d="M6.803 7.642c-.517.022-.918.46-.896.977l.469 10.731c.022.504.437.897.936.897l.041-.001c.518-.023.919-.46.896-.978L7.78 8.538c-.022-.518-.46-.92-.977-.896zM14.345 8.537l-.47 10.731c-.022.518.38.955.897.978l.041.001c.5 0 .914-.393.936-.897l.469-10.73c.022-.518-.379-.956-.896-.978-.516-.024-.955.378-.977.895zM10.125 8.578V19.31c0 .518.42.938.938.938.517 0 .937-.42.937-.938V8.58c0-.519-.42-.938-.938-.938-.517 0-.937.42-.937.937z" transform="translate(.938)"/>
    </g>
</svg>
